<?xml version="1.0" encoding="utf-8"?>
<!-- Generator: Adobe Illustrator 27.4.1, SVG Export Plug-In . SVG Version: 6.00 Build 0)  -->
<svg version="1.1" id="Layer_1" xmlns:serif="http://www.serif.com/"
	 xmlns="http://www.w3.org/2000/svg" xmlns:xlink="http://www.w3.org/1999/xlink" x="0px" y="0px" viewBox="0 0 456 456"
	 style="enable-background:new 0 0 456 456;" xml:space="preserve">
<style type="text/css">
	.st0{fill:#FFFFFF;}
</style>
<path class="st0" d="M258.6,111.9h-61.5h-15.4c-8.6,0-15.4,6.4-15.4,14.5s6.8,14.5,15.4,14.5v60.2c0,5.4-1.6,10.6-4.5,15.1
	L125.3,296c-3.1,4.9-4.9,10.6-4.9,16.5c0,17.4,15,31.6,33.3,31.6h148.4c18.3,0,33.3-14.1,33.3-31.6c0-5.8-1.7-11.5-4.9-16.5
	l-52-79.5c-3-4.6-4.5-9.9-4.5-15.1v-60.3c8.6,0,15.4-6.4,15.4-14.5s-6.8-14.5-15.4-14.5L258.6,111.9L258.6,111.9z M212.6,201.1V141
	h30.7v60.2c0,10.8,3.1,21.2,9.1,30.4L269,257H187l16.6-25.4C209.5,222.4,212.6,211.9,212.6,201.1L212.6,201.1z"/>
</svg>
