<?xml version="1.0" encoding="utf-8"?>
<!-- Generator: Adobe Illustrator 27.4.1, SVG Export Plug-In . SVG Version: 6.00 Build 0)  -->
<svg version="1.1" id="Layer_1" xmlns="http://www.w3.org/2000/svg" xmlns:xlink="http://www.w3.org/1999/xlink" x="0px" y="0px"
	 viewBox="0 0 456 456" style="enable-background:new 0 0 456 456;" xml:space="preserve">
<style type="text/css">
	.st0{fill:#FFFFFF;}
</style>
<path class="st0" d="M251.5,132.8h-47.3h-11.8c-6.6,0-11.8,5.3-11.8,11.9s5.2,11.9,11.8,11.9V206c0,4.4-1.2,8.7-3.5,12.4L149,283.8
	c-2.4,4.1-3.8,8.7-3.8,13.5c0,14.2,11.6,25.9,25.7,25.9h114.3c14.1,0,25.7-11.5,25.7-25.9c0-4.8-1.3-9.5-3.8-13.5L267,218.6
	c-2.3-3.8-3.5-8.1-3.5-12.4v-49.5c6.6,0,11.8-5.3,11.8-11.9c0-6.6-5.2-11.9-11.8-11.9L251.5,132.8L251.5,132.8z M216.2,206v-49.4
	h23.7V206c0,8.8,2.4,17.4,7,24.9l12.8,20.9h-63.2l12.8-20.9C213.8,223.4,216.2,214.8,216.2,206L216.2,206z"/>
</svg>
